<svg width="90" height="91" viewBox="0 0 90 91" fill="none" xmlns="http://www.w3.org/2000/svg">
<g id="Frame" filter="url(#filter0_d_55_2226)">
<rect x="9" y="5" width="72" height="72" rx="18" fill="white" shape-rendering="crispEdges"/>
<g id="Group">
<path id="Vector" d="M56.4026 33.7705C58.6138 33.7705 60.4063 31.978 60.4063 29.7669C60.4063 27.5557 58.6138 25.7632 56.4026 25.7632C54.1914 25.7632 52.3989 27.5557 52.3989 29.7669C52.3989 31.978 54.1914 33.7705 56.4026 33.7705Z" fill="#FBC300"/>
<path id="Vector_2" d="M27.9471 65.353C27.0538 65.353 26.1438 65.0056 25.4655 64.3273L21.8424 60.7041C20.4692 59.3309 20.4692 57.114 21.8424 55.7409L36.9141 40.6692C35.938 38.4853 35.4416 36.1526 35.4416 33.7702C35.4416 24.4228 43.0519 16.8125 52.3994 16.8125C61.7468 16.8125 69.3571 24.4228 69.3571 33.7702C69.3571 43.1177 61.7468 50.7445 52.3994 50.7445C50.017 50.7445 47.7008 50.2482 45.5005 49.2721L43.0519 51.7206C42.7045 52.0681 42.2413 52.2666 41.7449 52.2666H39.0813V54.3181C39.0813 55.3273 38.2541 56.1545 37.2284 56.1545H35.1438V58.239C35.1438 59.2482 34.3166 60.092 33.3074 60.092H31.2229V63.2188C31.2229 63.4339 31.1402 63.6324 30.9913 63.7813L30.4288 64.3438C29.7505 65.0221 28.8405 65.353 27.9471 65.353ZM52.3994 18.4007C43.9288 18.4007 37.0299 25.2996 37.0299 33.7702C37.0299 36.103 37.5593 38.353 38.585 40.4872C38.7339 40.8015 38.6677 41.1655 38.4361 41.3971L22.9674 56.8659C22.2229 57.6103 22.2229 58.8181 22.9674 59.5626L26.5905 63.1857C27.335 63.9302 28.5427 63.9302 29.2872 63.1857L29.6181 62.8548V59.2482C29.6181 58.8015 29.9821 58.4541 30.4122 58.4541H33.3074C33.4398 58.4541 33.5556 58.3383 33.5556 58.2059V55.3107C33.5556 54.864 33.9196 54.5166 34.3497 54.5166H37.2449C37.3773 54.5166 37.4931 54.4008 37.4931 54.2684V51.4228C37.4931 50.9762 37.8571 50.6287 38.2872 50.6287H41.7449C41.8111 50.6287 41.8773 50.5956 41.9104 50.5625L44.756 47.717C45.0041 47.4688 45.3681 47.4192 45.6659 47.5681C47.8001 48.6103 50.0501 49.1232 52.3828 49.1232C60.8534 49.1232 67.7523 42.2243 67.7523 33.7537C67.7523 25.2831 60.8699 18.4007 52.3994 18.4007Z" fill="#FBC300"/>
</g>
</g>
<defs>
<filter id="filter0_d_55_2226" x="-5.72205e-06" y="0.499997" width="90" height="90" filterUnits="userSpaceOnUse" color-interpolation-filters="sRGB">
<feFlood flood-opacity="0" result="BackgroundImageFix"/>
<feColorMatrix in="SourceAlpha" type="matrix" values="0 0 0 0 0 0 0 0 0 0 0 0 0 0 0 0 0 0 127 0" result="hardAlpha"/>
<feOffset dy="4.5"/>
<feGaussianBlur stdDeviation="4.5"/>
<feComposite in2="hardAlpha" operator="out"/>
<feColorMatrix type="matrix" values="0 0 0 0 0.0416146 0 0 0 0 0.0571496 0 0 0 0 0.383385 0 0 0 0.08 0"/>
<feBlend mode="normal" in2="BackgroundImageFix" result="effect1_dropShadow_55_2226"/>
<feBlend mode="normal" in="SourceGraphic" in2="effect1_dropShadow_55_2226" result="shape"/>
</filter>
</defs>
</svg>
