<svg width="90" height="91" viewBox="0 0 90 91" fill="none" xmlns="http://www.w3.org/2000/svg">
<g id="Frame" filter="url(#filter0_d_55_2365)">
<rect x="9" y="5" width="72" height="72" rx="18" fill="white" shape-rendering="crispEdges"/>
<g id="Group">
<path id="Vector" d="M62.2721 30.9743H27.8934C23.989 30.9743 20.8125 27.7978 20.8125 23.8934C20.8125 19.989 23.989 16.8125 27.8934 16.8125H62.2886C66.193 16.8125 69.3695 19.989 69.3695 23.8934C69.3529 27.7978 66.1765 30.9743 62.2721 30.9743ZM27.8934 18.4669C24.8989 18.4669 22.4669 20.8989 22.4669 23.8934C22.4669 26.8879 24.8989 29.3199 27.8934 29.3199H62.2886C65.2831 29.3199 67.7151 26.8879 67.7151 23.8934C67.7151 20.8989 65.2831 18.4669 62.2886 18.4669H27.8934Z" fill="#FBC300"/>
<path id="Vector_2" d="M62.2721 48.1637H27.8934C23.989 48.1637 20.8125 44.9873 20.8125 41.0828C20.8125 37.1784 23.989 34.002 27.8934 34.002H62.2886C66.193 34.002 69.3695 37.1784 69.3695 41.0828C69.3695 44.9873 66.1765 48.1637 62.2721 48.1637ZM27.8934 35.6564C24.8989 35.6564 22.4669 38.0884 22.4669 41.0828C22.4669 44.0773 24.8989 46.5093 27.8934 46.5093H62.2886C65.2831 46.5093 67.7151 44.0773 67.7151 41.0828C67.7151 38.0884 65.2831 35.6564 62.2886 35.6564H27.8934Z" fill="#FBC300"/>
<path id="Vector_3" d="M62.2721 65.3527H27.8934C23.989 65.3527 20.8125 62.1762 20.8125 58.2718C20.8125 54.3674 23.989 51.1909 27.8934 51.1909H62.2886C66.193 51.1909 69.3695 54.3674 69.3695 58.2718C69.3529 62.1762 66.1765 65.3527 62.2721 65.3527ZM27.8934 52.8453C24.8989 52.8453 22.4669 55.2773 22.4669 58.2718C22.4669 61.2663 24.8989 63.6983 27.8934 63.6983H62.2886C65.2831 63.6983 67.7151 61.2663 67.7151 58.2718C67.7151 55.2773 65.2831 52.8453 62.2886 52.8453H27.8934Z" fill="#FBC300"/>
<path id="Vector_4" d="M28.4726 27.4172C30.4188 27.4172 31.9965 25.8395 31.9965 23.8933C31.9965 21.9471 30.4188 20.3694 28.4726 20.3694C26.5264 20.3694 24.9487 21.9471 24.9487 23.8933C24.9487 25.8395 26.5264 27.4172 28.4726 27.4172Z" fill="#FBC300"/>
<g id="Group_2">
<path id="Vector_5" d="M55.0085 22.9506H35.503C35.0398 22.9506 34.6758 22.5866 34.6758 22.1233C34.6758 21.6601 35.0398 21.2961 35.503 21.2961H55.0085C55.4717 21.2961 55.8357 21.6601 55.8357 22.1233C55.8357 22.5866 55.4717 22.9506 55.0085 22.9506Z" fill="#FBC300"/>
<path id="Vector_6" d="M48.8872 26.4745H35.503C35.0398 26.4745 34.6758 26.1105 34.6758 25.6473C34.6758 25.184 35.0398 24.8201 35.503 24.8201H48.8872C49.3504 24.8201 49.7144 25.184 49.7144 25.6473C49.7144 26.1105 49.3504 26.4745 48.8872 26.4745Z" fill="#FBC300"/>
</g>
<path id="Vector_7" d="M28.4726 44.6069C30.4188 44.6069 31.9965 43.0292 31.9965 41.083C31.9965 39.1368 30.4188 37.5591 28.4726 37.5591C26.5264 37.5591 24.9487 39.1368 24.9487 41.083C24.9487 43.0292 26.5264 44.6069 28.4726 44.6069Z" fill="#FBC300"/>
<g id="Group_3">
<path id="Vector_8" d="M55.0085 40.1561H35.503C35.0398 40.1561 34.6758 39.7922 34.6758 39.3289C34.6758 38.8657 35.0398 38.5017 35.503 38.5017H55.0085C55.4717 38.5017 55.8357 38.8657 55.8357 39.3289C55.8357 39.7922 55.4717 40.1561 55.0085 40.1561Z" fill="#FBC300"/>
<path id="Vector_9" d="M48.8872 43.6634H35.503C35.0398 43.6634 34.6758 43.2995 34.6758 42.8362C34.6758 42.373 35.0398 42.009 35.503 42.009H48.8872C49.3504 42.009 49.7144 42.373 49.7144 42.8362C49.7144 43.2995 49.3504 43.6634 48.8872 43.6634Z" fill="#FBC300"/>
</g>
<path id="Vector_10" d="M28.4726 61.7961C30.4188 61.7961 31.9965 60.2184 31.9965 58.2722C31.9965 56.326 30.4188 54.7483 28.4726 54.7483C26.5264 54.7483 24.9487 56.326 24.9487 58.2722C24.9487 60.2184 26.5264 61.7961 28.4726 61.7961Z" fill="#FBC300"/>
<g id="Group_4">
<path id="Vector_11" d="M55.0085 57.3458H35.503C35.0398 57.3458 34.6758 56.9818 34.6758 56.5186C34.6758 56.0554 35.0398 55.6914 35.503 55.6914H55.0085C55.4717 55.6914 55.8357 56.0554 55.8357 56.5186C55.8357 56.9818 55.4717 57.3458 55.0085 57.3458Z" fill="#FBC300"/>
<path id="Vector_12" d="M48.8872 60.8697H35.503C35.0398 60.8697 34.6758 60.5058 34.6758 60.0425C34.6758 59.5793 35.0398 59.2153 35.503 59.2153H48.8872C49.3504 59.2153 49.7144 59.5793 49.7144 60.0425C49.7144 60.5058 49.3504 60.8697 48.8872 60.8697Z" fill="#FBC300"/>
</g>
</g>
</g>
<defs>
<filter id="filter0_d_55_2365" x="-5.72205e-06" y="0.499997" width="90" height="90" filterUnits="userSpaceOnUse" color-interpolation-filters="sRGB">
<feFlood flood-opacity="0" result="BackgroundImageFix"/>
<feColorMatrix in="SourceAlpha" type="matrix" values="0 0 0 0 0 0 0 0 0 0 0 0 0 0 0 0 0 0 127 0" result="hardAlpha"/>
<feOffset dy="4.5"/>
<feGaussianBlur stdDeviation="4.5"/>
<feComposite in2="hardAlpha" operator="out"/>
<feColorMatrix type="matrix" values="0 0 0 0 0.0416146 0 0 0 0 0.0571496 0 0 0 0 0.383385 0 0 0 0.08 0"/>
<feBlend mode="normal" in2="BackgroundImageFix" result="effect1_dropShadow_55_2365"/>
<feBlend mode="normal" in="SourceGraphic" in2="effect1_dropShadow_55_2365" result="shape"/>
</filter>
</defs>
</svg>
