<svg width="90" height="91" viewBox="0 0 90 91" fill="none" xmlns="http://www.w3.org/2000/svg">
<g id="Frame" filter="url(#filter0_d_55_1986)">
<rect x="9" y="5" width="72" height="72" rx="18" fill="white" shape-rendering="crispEdges"/>
<g id="Group 82">
<g id="Group">
<path id="Vector" d="M28.0589 33.3406C28.0423 33.3902 28.0258 33.4398 28.0258 33.4895C27.5129 35.8884 28.7703 41.7616 33.2703 46.4271C37.9192 50.9106 43.8089 52.1846 46.2078 51.6717C46.2574 51.6551 46.307 51.6386 46.3567 51.6386C47.0681 51.4732 47.5975 50.9768 48.16 50.4309C48.9045 49.6864 49.4339 48.8426 49.4835 47.8665C49.5166 47.1882 49.2519 46.5099 48.7721 46.0301L47.035 44.2929C46.5552 43.8131 45.8769 43.5484 45.1986 43.5815C44.2225 43.6311 43.2464 44.0282 42.5019 44.7727C42.2868 44.9878 42.1048 45.2194 41.9394 45.4676C41.625 45.9473 41.3273 46.5926 41.2445 47.1551C39.8217 46.94 37.1912 45.2525 35.8677 43.9289L35.8512 43.9124L35.8346 43.8959C34.5111 42.5723 32.8236 39.9418 32.6085 38.5189C33.171 38.4362 33.7997 38.1384 34.296 37.8241C34.5442 37.6586 34.7758 37.4767 34.9909 37.2616C35.7353 36.5171 36.1324 35.541 36.182 34.5649C36.2151 33.8865 35.9504 33.2082 35.4706 32.7284L33.7335 30.9913C33.2537 30.5115 32.5754 30.2468 31.8971 30.2799C30.921 30.3295 30.0773 30.8589 29.3328 31.6034C28.7206 32.0997 28.2409 32.6457 28.0589 33.3406Z" fill="#FBC300"/>
</g>
<path id="Vector_2" d="M53.6197 57.2964H23.9726C22.1859 57.2964 20.73 55.7577 20.73 53.8717V28.1122C20.73 26.2261 22.1859 24.6875 23.9726 24.6875H53.6362C55.423 24.6875 56.8789 26.2261 56.8789 28.1122V33.5718L66.2594 28.1618C66.8715 27.8144 67.616 27.7978 68.2281 28.1618C68.8734 28.5423 69.2704 29.2537 69.2704 30.0148V51.8533C69.2704 52.6309 68.8734 53.3423 68.2281 53.7062C67.616 54.0537 66.8715 54.0537 66.2594 53.7062L56.8623 48.2963V53.8882C56.8623 55.7743 55.4065 57.2964 53.6197 57.2964ZM23.9726 26.3585C23.0958 26.3585 22.3844 27.1526 22.3844 28.1287V53.9048C22.3844 54.8809 23.0958 55.675 23.9726 55.675H53.6362C54.5131 55.675 55.2245 54.8809 55.2245 53.9048V46.8569C55.2245 46.5591 55.3899 46.2944 55.6381 46.1455C55.8862 45.9966 56.2171 45.9966 56.4653 46.1455L67.1031 52.2834C67.2024 52.3496 67.3182 52.3496 67.4175 52.2834C67.4671 52.2503 67.6326 52.1345 67.6326 51.8533V30.0148C67.6326 29.7335 67.4671 29.6177 67.4175 29.5846C67.3182 29.5184 67.2024 29.5184 67.1031 29.5846L56.4653 35.7226C56.2171 35.8715 55.8862 35.8715 55.6381 35.7226C55.3899 35.5737 55.2245 35.309 55.2245 35.0112V28.1122C55.2245 27.1361 54.5131 26.3419 53.6362 26.3419H23.9726V26.3585Z" fill="#FBC300"/>
<path id="Vector_3" d="M49.4671 41.8276C49.0038 41.8276 48.6398 41.4636 48.6398 41.0004C48.6398 35.5077 44.1729 31.0573 38.6968 31.0573C38.2336 31.0573 37.8696 30.6933 37.8696 30.23C37.8696 29.7668 38.2336 29.4028 38.6968 29.4028C45.0994 29.4028 50.2943 34.6143 50.2943 41.0004C50.2943 41.4636 49.9303 41.8276 49.4671 41.8276Z" fill="#FBC300"/>
<path id="Vector_4" d="M45.6123 41.8275C45.149 41.8275 44.7851 41.4636 44.7851 41.0003C44.7851 37.6418 42.0553 34.912 38.6968 34.912C38.2336 34.912 37.8696 34.548 37.8696 34.0848C37.8696 33.6215 38.2336 33.2576 38.6968 33.2576C42.9652 33.2576 46.4395 36.7319 46.4395 41.0003C46.4395 41.4636 46.0755 41.8275 45.6123 41.8275Z" fill="#FBC300"/>
</g>
</g>
<defs>
<filter id="filter0_d_55_1986" x="-5.72205e-06" y="0.499997" width="90" height="90" filterUnits="userSpaceOnUse" color-interpolation-filters="sRGB">
<feFlood flood-opacity="0" result="BackgroundImageFix"/>
<feColorMatrix in="SourceAlpha" type="matrix" values="0 0 0 0 0 0 0 0 0 0 0 0 0 0 0 0 0 0 127 0" result="hardAlpha"/>
<feOffset dy="4.5"/>
<feGaussianBlur stdDeviation="4.5"/>
<feComposite in2="hardAlpha" operator="out"/>
<feColorMatrix type="matrix" values="0 0 0 0 0.0416146 0 0 0 0 0.0571496 0 0 0 0 0.383385 0 0 0 0.08 0"/>
<feBlend mode="normal" in2="BackgroundImageFix" result="effect1_dropShadow_55_1986"/>
<feBlend mode="normal" in="SourceGraphic" in2="effect1_dropShadow_55_1986" result="shape"/>
</filter>
</defs>
</svg>
